HIERARCHY
ROOT hip
{
  OFFSET 0 0 0
  CHANNELS 6 Xposition Yposition Zposition Zrotation Yrotation Xrotation
  JOINT abdomen
  {
    OFFSET 0 20.6881 -0.73152
    CHANNELS 3 Zrotation Xrotation Yrotation
    JOINT chest
    {
      OFFSET 0 11.7043 -0.48768
      CHANNELS 3 Zrotation Xrotation Yrotation
      JOINT neck
      {
        OFFSET 0 22.1894 -2.19456
        CHANNELS 3 Zrotation Xrotation Yrotation
        JOINT head
        {
          OFFSET -0.24384 7.07133 1.2192
          CHANNELS 3 Zrotation Xrotation Yrotation
          JOINT leftEye
          {
            OFFSET 4.14528 8.04674 8.04672
            CHANNELS 3 Zrotation Xrotation Yrotation
            End Site
            {
              OFFSET 1 0 0
            }
          }
          JOINT rightEye
          {
            OFFSET -3.6576 8.04674 8.04672
            CHANNELS 3 Zrotation Xrotation Yrotation
            End Site
            {
              OFFSET 1 0 0
            }
          }
        }
      }
      JOINT rCollar
      {
        OFFSET -2.68224 19.2634 -4.8768
        CHANNELS 3 Zrotation Xrotation Yrotation
        JOINT rShldr
        {
          OFFSET -8.77824 -1.95073 1.46304
          CHANNELS 3 Zrotation Xrotation Yrotation
          JOINT rForeArm
          {
            OFFSET -28.1742 -1.7115 0.48768
            CHANNELS 3 Zrotation Xrotation Yrotation
            JOINT rHand
            {
              OFFSET -22.5879 0.773209 7.07136
              CHANNELS 3 Zrotation Xrotation Yrotation
              JOINT rThumb1
              {
                OFFSET -1.2192 -0.487915 3.41376
                CHANNELS 3 Zrotation Xrotation Yrotation
                JOINT rThumb2
                {
                  OFFSET -3.37035 -0.52449 3.41376
                  CHANNELS 3 Zrotation Xrotation Yrotation
                  End Site
                  {
                    OFFSET -1.78271 -1.18214 1.43049
                  }
                }
              }
              JOINT rIndex1
              {
                OFFSET -7.75947 0.938293 5.60832
                CHANNELS 3 Zrotation Xrotation Yrotation
                JOINT rIndex2
                {
                  OFFSET -2.54057 -0.884171 1.56538
                  CHANNELS 3 Zrotation Xrotation Yrotation
                  End Site
                  {
                    OFFSET -1.62519 -0.234802 1.16502
                  }
                }
              }
              JOINT rMid1
              {
                OFFSET -8.24714 1.18213 3.41376
                CHANNELS 3 Zrotation Xrotation Yrotation
                JOINT rMid2
                {
                  OFFSET -3.10165 -0.590103 1.0647
                  CHANNELS 3 Zrotation Xrotation Yrotation
                  End Site
                  {
                    OFFSET -2.48547 -0.328903 0.83742
                  }
                }
              }
              JOINT rRing1
              {
                OFFSET -8.82822 0.546677 1.51678
                CHANNELS 3 Zrotation Xrotation Yrotation
                JOINT rRing2
                {
                  OFFSET -2.60934 -0.819778 -0.0198488
                  CHANNELS 3 Zrotation Xrotation Yrotation
                  End Site
                  {
                    OFFSET -2.33842 -0.294052 0.168128
                  }
                }
              }
              JOINT rPinky1
              {
                OFFSET -8.27202 -0.0477905 -0.4584
                CHANNELS 3 Zrotation Xrotation Yrotation
                JOINT rPinky2
                {
                  OFFSET -1.82734 -0.647385 -0.700984
                  CHANNELS 3 Zrotation Xrotation Yrotation
                  End Site
                  {
                    OFFSET -1.69225 -0.51767 -0.607171
                  }
                }
              }
            }
          }
        }
      }
      JOINT lCollar
      {
        OFFSET 2.68224 19.2634 -4.8768
        CHANNELS 3 Zrotation Xrotation Yrotation
        JOINT lShldr
        {
          OFFSET 8.77824 -1.95073 1.46304
          CHANNELS 3 Zrotation Xrotation Yrotation
          JOINT lForeArm
          {
            OFFSET 28.1742 -1.7115 0.48768
            CHANNELS 3 Zrotation Xrotation Yrotation
            JOINT lHand
            {
              OFFSET 22.5879 0.773209 7.07136
              CHANNELS 3 Zrotation Xrotation Yrotation
              JOINT lThumb1
              {
                OFFSET 1.2192 -0.487915 3.41376
                CHANNELS 3 Zrotation Xrotation Yrotation
                JOINT lThumb2
                {
                  OFFSET 3.37035 -0.52449 3.41376
                  CHANNELS 3 Zrotation Xrotation Yrotation
                  End Site
                  {
                    OFFSET 1.78271 -1.18214 1.43049
                  }
                }
              }
              JOINT lIndex1
              {
                OFFSET 7.75947 0.938293 5.60832
                CHANNELS 3 Zrotation Xrotation Yrotation
                JOINT lIndex2
                {
                  OFFSET 2.54057 -0.884171 1.56538
                  CHANNELS 3 Zrotation Xrotation Yrotation
                  End Site
                  {
                    OFFSET 1.62519 -0.234802 1.16502
                  }
                }
              }
              JOINT lMid1
              {
                OFFSET 8.24714 1.18213 3.41376
                CHANNELS 3 Zrotation Xrotation Yrotation
                JOINT lMid2
                {
                  OFFSET 3.10165 -0.590103 1.0647
                  CHANNELS 3 Zrotation Xrotation Yrotation
                  End Site
                  {
                    OFFSET 2.48547 -0.328903 0.83742
                  }
                }
              }
              JOINT lRing1
              {
                OFFSET 8.82822 0.546677 1.51678
                CHANNELS 3 Zrotation Xrotation Yrotation
                JOINT lRing2
                {
                  OFFSET 2.60934 -0.819778 -0.0198488
                  CHANNELS 3 Zrotation Xrotation Yrotation
                  End Site
                  {
                    OFFSET 2.33842 -0.294052 0.168128
                  }
                }
              }
              JOINT lPinky1
              {
                OFFSET 8.27202 -0.0477905 -0.4584
                CHANNELS 3 Zrotation Xrotation Yrotation
                JOINT lPinky2
                {
                  OFFSET 1.82734 -0.647385 -0.700984
                  CHANNELS 3 Zrotation Xrotation Yrotation
                  End Site
                  {
                    OFFSET 1.69225 -0.51767 -0.607171
                  }
                }
              }
            }
          }
        }
      }
    }
  }
  JOINT rButtock
  {
    OFFSET -8.77824 4.35084 1.2192
    CHANNELS 3 Zrotation Xrotation Yrotation
    JOINT rThigh
    {
      OFFSET 0 -1.70687 -2.19456
      CHANNELS 3 Zrotation Xrotation Yrotation
      JOINT rShin
      {
        OFFSET 0 -36.8199 0.73152
        CHANNELS 3 Zrotation Xrotation Yrotation
        JOINT rFoot
        {
          OFFSET 0.73152 -45.1104 -5.12064
          CHANNELS 3 Zrotation Xrotation Yrotation
          End Site
          {
            OFFSET -1.1221 -3.69964 12.103
          }
        }
      }
    }
  }
  JOINT lButtock
  {
    OFFSET 8.77824 4.35084 1.2192
    CHANNELS 3 Zrotation Xrotation Yrotation
    JOINT lThigh
    {
      OFFSET 0 -1.70687 -2.19456
      CHANNELS 3 Zrotation Xrotation Yrotation
      JOINT lShin
      {
        OFFSET 0 -36.8199 0.73152
        CHANNELS 3 Zrotation Xrotation Yrotation
        JOINT lFoot
        {
          OFFSET -0.73152 -45.1104 -5.12064
          CHANNELS 3 Zrotation Xrotation Yrotation
          End Site
          {
            OFFSET 1.1221 -3.69964 12.103
          }
        }
      }
    }
  }
}
MOTION
Frames:	6
Frame Time:	0.00833333
50.8893 85.1388 192.281 0.0 0.0 0.0 0.41059 -0.00336424 0.0117806 0.113459 -0.00539521 0.0196593 3.08756e-15 7.95139e-16 -1.42876e-16 9.16894e-15 9.54166e-15 -4.02228e-16 -0.0 0.0 0.0 -0.0 0.0 0.0 1.53943e-15 2.21303e-17 4.96962e-17 3.37652e-14 5.40446e-16 -1.98785e-16 5.54261e-13 -1.46504e-13 -1.90833e-14 6.30047e-12 2.48183e-13 -2.8943e-13 1.48682e-11 2.17728e-13 -6.55194e-13 2.56766e-11 3.75305e-13 -1.13228e-12 1.48715e-11 2.19856e-13 -6.67916e-13 7.73091 5.47488 0.417314 1.48688e-11 2.17769e-13 -6.52014e-13 2.90554 0.965183 0.102902 1.48711e-11 2.1747e-13 -6.54399e-13 10.2786 0.731801 0.0259123 1.48665e-11 2.19856e-13 -6.48833e-13 2.22167 -0.733487 -0.20892 1.44244e-15 2.11597e-17 -1.49089e-16 2.98629e-14 4.41053e-16 -2.18663e-15 5.47354e-13 1.79503e-13 -2.54444e-14 6.30395e-12 -8.56265e-14 -2.76708e-13 1.48662e-11 2.01088e-13 -6.52014e-13 2.56822e-11 3.4668e-13 -1.12353e-12 1.48635e-11 2.0276e-13 -6.42472e-13 -7.73091 5.47488 -0.417314 1.48661e-11 2.00971e-13 -6.55194e-13 -2.90554 0.965183 -0.102902 1.48595e-11 2.01071e-13 -6.54399e-13 -10.2786 0.731801 -0.0259123 1.48707e-11 2.01965e-13 -6.64736e-13 -2.22167 -0.733487 0.20892 -2.03217e-16 0.0 -3.88251e-19 0.770604 -4.17183 -0.0656815 -0.00265486 2.00555 -0.0182702 -0.461829 2.16687 0.0961007 2.03217e-16 0.0 3.88251e-19 -0.143236 -2.55995 0.0260685 0.00716321 -0.914091 0.0621719 0.453775 3.47457 -0.121225
51.3232 83.4489 186.627 178.841 -1.6849 -153.167 -1.51043 -8.62235 -0.202841 1.1876 3.80755 -0.167831 -0.464832 3.2922 -0.590886 1.58748 0.746254 -2.41591 -0.0 0.0 0.0 -0.0 0.0 0.0 8.32151e-17 -3.02109e-14 -4.97389e-15 22.827 -2.77482 -2.32908 -3.32607 -1.36865 5.33966 0.0165107 2.85255 0.39911 -3.18275e-11 -2.66454e-10 6.52279e-10 -4.96329e-11 -4.60823e-10 1.12786e-09 -3.1826e-11 -2.66452e-10 6.52266e-10 7.73091 5.47488 0.417314 -3.18275e-11 -2.66453e-10 6.5228e-10 2.90554 0.965183 0.102902 -3.1824e-11 -2.66454e-10 6.52277e-10 10.2786 0.731801 0.0259123 -3.18295e-11 -2.66453e-10 6.52281e-10 2.22167 -0.733487 -0.20892 -3.03968e-17 -3.02136e-14 -5.16801e-15 -21.1125 -2.21327 1.04182 1.39419 -0.43783 -2.34362 -0.139673 8.30652 -1.12358 6.22285e-10 -1.21506e-10 -6.02621e-10 1.06063e-09 -2.08009e-10 -1.05447e-09 6.22281e-10 -1.21506e-10 -6.02612e-10 -7.73091 5.47488 -0.417314 6.22286e-10 -1.21507e-10 -6.02624e-10 -2.90554 0.965183 -0.102902 6.22277e-10 -1.21507e-10 -6.02622e-10 -10.2786 0.731801 -0.0259123 6.22289e-10 -1.21507e-10 -6.02632e-10 -2.22167 -0.733487 0.20892 -2.03217e-16 0.0 -3.88251e-19 0.809127 -11.097 1.75376 0.00308079 3.99998 0.0505817 -0.788721 -2.89629 -3.45216 2.03217e-16 0.0 3.88251e-19 0.143592 -9.77167 -2.37464 0.00602125 1.47934 0.0193938 0.49482 1.33827 0.859825
51.3317 83.4491 186.656 178.877 -1.5755 -153.037 -3.61706 -17.7305 -0.447768 2.35169 7.83929 -0.369 -0.887649 6.77206 -1.22179 3.34118 1.53285 -4.97153 -0.0 0.0 0.0 -0.0 0.0 0.0 -2.52965e-15 -6.38982e-14 -1.04393e-14 46.7114 -5.67584 -4.79674 -6.57211 -2.77951 11.0039 -0.00942959 5.85635 0.822746 -6.36272e-11 -5.563e-10 1.37953e-09 -9.85689e-11 -9.62131e-10 2.38515e-09 -6.36277e-11 -5.56298e-10 1.37952e-09 7.73091 5.47488 0.417314 -6.36277e-11 -5.56298e-10 1.37953e-09 2.90554 0.965183 0.102902 -6.36231e-11 -5.563e-10 1.37953e-09 10.2786 0.731801 0.0259123 -6.36295e-11 -5.563e-10 1.37953e-09 2.22167 -0.733487 -0.20892 -2.66375e-15 -6.39026e-14 -1.06257e-14 -43.3483 -4.54726 2.14481 2.84329 -0.903613 -4.84577 0.0816757 17.0742 -2.39229 1.30639e-09 -2.60061e-10 -1.25856e-09 2.22675e-09 -4.45252e-10 -2.20277e-09 1.30639e-09 -2.60062e-10 -1.25855e-09 -7.73091 5.47488 -0.417314 1.30639e-09 -2.60061e-10 -1.25856e-09 -2.90554 0.965183 -0.102902 1.30638e-09 -2.60063e-10 -1.25856e-09 -10.2786 0.731801 -0.0259123 1.30639e-09 -2.60062e-10 -1.25857e-09 -2.22167 -0.733487 0.20892 -2.03217e-16 0.0 -3.88251e-19 1.34955 -18.3858 3.8036 0.00384269 6.10674 0.123787 -1.82042 -8.19412 -7.26959 2.03217e-16 0.0 3.88251e-19 -0.241091 -17.3443 -5.07164 0.008681 4.0087 -0.0258739 0.617566 -0.91717 1.89475
51.3272 83.4509 186.661 178.855 -1.5948 -153.013 -5.56429 -25.8588 -0.694778 3.412 11.433 -0.552666 -1.18821 9.87235 -1.79634 4.95079 2.22284 -7.25261 -0.0 0.0 0.0 -0.0 0.0 0.0 -2.82922e-15 -9.0677e-14 -1.50211e-14 67.8001 -8.26918 -7.05273 -9.22244 -3.96354 16.0538 -0.070822 8.55597 1.20931 -1.25219e-10 -7.99798e-10 1.95815e-09 -2.00252e-10 -1.38322e-09 3.38585e-09 -1.25221e-10 -7.99796e-10 1.95813e-09 7.73091 5.47488 0.417314 -1.2522e-10 -7.99795e-10 1.95814e-09 2.90554 0.965183 0.102902 -1.25214e-10 -7.99797e-10 1.95814e-09 10.2786 0.731801 0.0259123 -1.25222e-10 -7.99798e-10 1.95814e-09 2.22167 -0.733487 -0.20892 -2.97607e-15 -9.0683e-14 -1.52059e-14 -63.0949 -6.631 3.14418 4.07538 -1.3047 -7.0325 0.642651 24.8792 -3.67703 1.83712e-09 -3.64921e-10 -1.80656e-09 3.13052e-09 -6.2472e-10 -3.16115e-09 1.83712e-09 -3.64923e-10 -1.80655e-09 -7.73091 5.47488 -0.417314 1.83712e-09 -3.64922e-10 -1.80656e-09 -2.90554 0.965183 -0.102902 1.83711e-09 -3.64924e-10 -1.80656e-09 -10.2786 0.731801 -0.0259123 1.83713e-09 -3.64924e-10 -1.80657e-09 -2.22167 -0.733487 0.20892 -2.03217e-16 0.0 -3.88251e-19 2.32302 -24.8488 5.83578 4.66353e-05 7.9888 0.189735 -3.35038 -12.8148 -10.8076 2.03217e-16 0.0 3.88251e-19 -1.24084 -24.0238 -7.74728 0.0144883 6.2662 -0.0665638 0.79636 -2.93033 2.82447
51.3312 83.4518 186.666 178.872 -1.6017 -152.988 -6.95544 -31.5389 -0.886823 4.15843 13.932 -0.683083 -1.32958 12.0277 -2.20748 6.06652 2.68661 -8.84265 -0.0 0.0 0.0 -0.0 0.0 0.0 2.65445e-15 -1.00185e-13 -1.73937e-14 82.3684 -10.1437 -8.71987 -10.9179 -4.71817 19.5345 -0.137069 10.4967 1.49211 -2.61291e-10 -9.27424e-10 2.16517e-09 -4.33802e-10 -1.60376e-09 3.74508e-09 -2.61293e-10 -9.27423e-10 2.16516e-09 7.73091 5.47488 0.417314 -2.61292e-10 -9.27421e-10 2.16517e-09 2.90554 0.965183 0.102902 -2.61286e-10 -9.27423e-10 2.16516e-09 10.2786 0.731801 0.0259123 -2.61294e-10 -9.27425e-10 2.16517e-09 2.22167 -0.733487 -0.20892 2.51416e-15 -1.00192e-13 -1.75924e-14 -76.7881 -8.09736 3.86691 4.84419 -1.55307 -8.42901 1.27761 30.3154 -4.71366 1.98442e-09 -3.85547e-10 -2.08469e-09 3.37845e-09 -6.59749e-10 -3.64473e-09 1.98442e-09 -3.85549e-10 -2.08468e-09 -7.73091 5.47488 -0.417314 1.98443e-09 -3.85547e-10 -2.08469e-09 -2.90554 0.965183 -0.102902 1.98441e-09 -3.85549e-10 -2.08469e-09 -10.2786 0.731801 -0.0259123 1.98443e-09 -3.8555e-10 -2.0847e-09 -2.22167 -0.733487 0.20892 -2.03217e-16 0.0 -3.88251e-19 3.33004 -29.3377 7.42666 -0.00489279 9.30915 0.236273 -4.76846 -15.9475 -13.3823 2.03217e-16 0.0 3.88251e-19 -2.35227 -28.6295 -9.84815 0.0205826 7.84406 -0.0953074 0.961465 -4.34239 3.48546
51.3359 83.4548 186.649 178.892 -1.6288 -152.974 -7.47298 -33.8041 -0.946819 4.43704 14.898 -0.731305 -1.30279 12.8604 -2.36983 6.41437 2.85456 -9.45688 -0.0 0.0 0.0 -0.0 0.0 0.0 1.84045e-14 -8.20845e-14 -1.89983e-14 88.0194 -11.0422 -9.53203 -11.5004 -4.96411 20.7917 -0.17208 11.3814 1.62254 -5.50039e-10 -9.10264e-10 1.77391e-09 -9.36399e-10 -1.57367e-09 3.07179e-09 -5.50039e-10 -9.10263e-10 1.7739e-09 7.73091 5.47488 0.417314 -5.50041e-10 -9.10261e-10 1.77391e-09 2.90554 0.965183 0.102902 -5.50033e-10 -9.10263e-10 1.77391e-09 10.2786 0.731801 0.0259123 -5.50044e-10 -9.10264e-10 1.77391e-09 2.22167 -0.733487 -0.20892 1.83051e-14 -8.20911e-14 -1.9241e-14 -82.0658 -8.70766 4.16715 4.9603 -1.57895 -8.65034 1.59249 32.458 -5.1658 1.53062e-09 -2.63705e-10 -1.95444e-09 2.59778e-09 -4.50463e-10 -3.40933e-09 1.53062e-09 -2.63707e-10 -1.95443e-09 -7.73091 5.47488 -0.417314 1.53062e-09 -2.63705e-10 -1.95444e-09 -2.90554 0.965183 -0.102902 1.53061e-09 -2.63707e-10 -1.95444e-09 -10.2786 0.731801 -0.0259123 1.53062e-09 -2.63707e-10 -1.95445e-09 -2.22167 -0.733487 0.20892 -2.03217e-16 0.0 -3.88251e-19 3.84382 -31.1452 8.10763 -0.00669577 9.84725 0.254822 -5.39892 -17.1478 -14.4021 2.03217e-16 0.0 3.88251e-19 -2.87205 -30.4629 -10.7616 0.0238039 8.47025 -0.106906 1.04026 -4.91992 3.77337
